<svg xmlns='http://www.w3.org/2000/svg' style='font-size:initial;' viewBox="0 0 436.32 256.32">
<path d="M8.16,74.16L104.16,74.16A6 6 0 0 0 110.16 68.16L110.16,8.16A6 6 0 0 0 104.16 2.16L8.16,2.16A6 6 0 0 0 2.16 8.16L2.16,68.16A6 6 0 0 0 8.16 74.16Z"  style="fill:none;stroke-width:2.16;stroke:rgb(0,0,0);" />
<text x="56.16" y="38.16" text-anchor="middle" fill="rgb(0,0,0)" dominant-baseline="central">RP Server</text>
<polygon points="110.16,38.16 121.68,33.84 121.68,42.48" style="fill:rgb(0,0,0)"/>
<polygon points="326.16,38.16 314.64,42.48 314.64,33.84" style="fill:rgb(0,0,0)"/>
<path d="M115.92,38.16L320.4,38.16"  style="fill:none;stroke-width:2.16;stroke:rgb(0,0,0);" />
<text x="218.16" y="26.46" text-anchor="middle" fill="rgb(0,0,0)" dominant-baseline="central">authorization</text>
<path d="M332.16,74.16L428.16,74.16A6 6 0 0 0 434.16 68.16L434.16,8.16A6 6 0 0 0 428.16 2.16L332.16,2.16A6 6 0 0 0 326.16 8.16L326.16,68.16A6 6 0 0 0 332.16 74.16Z"  style="fill:none;stroke-width:2.16;stroke:rgb(0,0,0);" />
<text x="380.16" y="18" text-anchor="middle" fill="rgb(0,0,0)" dominant-baseline="central">Identity</text>
<text x="380.16" y="38.16" text-anchor="middle" fill="rgb(0,0,0)" dominant-baseline="central">Provider </text>
<text x="380.16" y="58.32" text-anchor="middle" fill="rgb(0,0,0)" dominant-baseline="central">(IDP)</text>
<polygon points="56.16,182.16 51.84,170.64 60.48,170.64" style="fill:rgb(0,0,0)"/>
<path d="M56.16,74.16L56.16,176.4"  style="fill:none;stroke-width:2.16;stroke:rgb(0,0,0);" />
<text x="56.16" y="116.46" text-anchor="middle" fill="rgb(0,0,0)" transform="rotate(90 56.16,128.16)" dominant-baseline="central">access</text>
<text x="56.16" y="139.86" text-anchor="middle" fill="rgb(0,0,0)" transform="rotate(90 56.16,128.16)" dominant-baseline="central">token</text>
<path d="M8.16,254.16L104.16,254.16A6 6 0 0 0 110.16 248.16L110.16,188.16A6 6 0 0 0 104.16 182.16L8.16,182.16A6 6 0 0 0 2.16 188.16L2.16,248.16A6 6 0 0 0 8.16 254.16Z"  style="fill:none;stroke-width:2.16;stroke:rgb(0,0,0);" />
<text x="56.16" y="218.16" text-anchor="middle" fill="rgb(0,0,0)" dominant-baseline="central">RP Client</text>
<polygon points="110.16,218.16 117.33,208.162 122.136,215.342" style="fill:rgb(0,0,0)"/>
<polygon points="327.917,72.4026 320.747,82.4006 315.941,75.2206" style="fill:rgb(0,0,0)"/>
<path d="M114.947,214.956L323.131,75.6066"  style="fill:none;stroke-width:2.16;stroke:rgb(0,0,0);" />
<text x="219.039" y="133.581" text-anchor="middle" fill="rgb(0,0,0)" transform="rotate(-33.79664094 219.039,145.281)" dominant-baseline="central">retrieve Clear Names</text>
</svg>
