<?xml version="1.0" encoding="UTF-8" standalone="no"?><svg xmlns="http://www.w3.org/2000/svg" xmlns:xlink="http://www.w3.org/1999/xlink" contentStyleType="text/css" height="276px" preserveAspectRatio="none" style="width:292px;height:276px;background:#FFFFFF;" version="1.1" viewBox="0 0 292 276" width="292px" zoomAndPan="magnify"><defs><filter height="1" id="b11xmr9z0xxdz30" width="1" x="0" y="0"><feFlood flood-color="#85BCF0" result="flood"/><feComposite in="SourceGraphic" in2="flood" operator="over"/></filter><filter height="1" id="b11xmr9z0xxdz31" width="1" x="0" y="0"><feFlood flood-color="#FAC711" result="flood"/><feComposite in="SourceGraphic" in2="flood" operator="over"/></filter></defs><g><!--cluster RelyingParty--><g id="cluster_RelyingParty"><rect fill="#D9D9D9" height="87" rx="2.5" ry="2.5" style="stroke:#181818;stroke-width:1.0;" width="279" x="7" y="106"/><text fill="#000000" font-family="sans-serif" font-size="14" font-weight="bold" lengthAdjust="spacing" textLength="103" x="95" y="120.9951">Relying Party</text></g><!--entity Client--><g id="elem_Client"><rect fill="#FAC711" height="36.2969" rx="2.5" ry="2.5" style="stroke:#181818;stroke-width:0.5;" width="59" x="23.5" y="141"/><text fill="#000000" font-family="sans-serif" font-size="14" lengthAdjust="spacing" textLength="39" x="33.5" y="163.9951">Client</text></g><!--entity Server--><g id="elem_Server"><rect fill="#85BCF0" height="36.2969" rx="2.5" ry="2.5" style="stroke:#181818;stroke-width:0.5;" width="64" x="206" y="141"/><text fill="#000000" font-family="sans-serif" font-size="14" lengthAdjust="spacing" textLength="44" x="216" y="163.9951">Server</text></g><!--entity IDP--><g id="elem_IDP"><rect fill="#FAC711" height="36.2969" rx="2.5" ry="2.5" style="stroke:#181818;stroke-width:0.5;" width="43" x="123.5" y="7"/><text fill="#000000" font-family="sans-serif" font-size="14" lengthAdjust="spacing" textLength="23" x="133.5" y="29.9951">IDP</text></g><!--link IDP to Server--><g id="link_IDP_Server"><path d="M163.93,47.64 C170.51,55.46 177.79,64.47 184,73 C199.14,93.8 214.72,118.78 225.23,136.25 " fill="none" id="IDP-Server" style="stroke:#85BCF0;stroke-width:1.0;"/><polygon fill="#85BCF0" points="160.36,43.43,163.1421,52.8777,163.5987,47.2393,169.2371,47.6959,160.36,43.43" style="stroke:#85BCF0;stroke-width:1.0;"/><polygon fill="#85BCF0" points="228.05,140.97,226.8495,131.1946,225.4775,136.6825,219.9896,135.3105,228.05,140.97" style="stroke:#85BCF0;stroke-width:1.0;"/><text fill="#000000" font-family="sans-serif" font-size="13" lengthAdjust="spacing" textLength="85" x="196" y="86.0669">Authorization</text></g><!--reverse link Client to IDP--><g id="link_Client_IDP"><path d="M61.36,135.86 C68.71,117.95 80.49,92.58 95,73 C103.08,62.09 113.88,51.57 123.38,43.27 " fill="none" id="Client-backto-IDP" style="stroke:#FAC711;stroke-width:1.0;"/><polygon fill="#FAC711" points="59.41,140.7,66.4919,133.8556,61.2842,136.0646,59.0752,130.8568,59.41,140.7" style="stroke:#FAC711;stroke-width:1.0;"/><text fill="#000000" font-family="sans-serif" font-size="13" lengthAdjust="spacing" textLength="83" x="96" y="86.0669">Clear Names</text></g><!--reverse link Client to Server--><g id="link_Client_Server"><path d="M88.02,159 C121.94,159 172.95,159 205.86,159 " fill="none" id="Client-backto-Server" style="stroke:#85BCF0;stroke-width:1.0;"/><polygon fill="#85BCF0" points="82.72,159,91.72,163,87.72,159,91.72,155,82.72,159" style="stroke:#85BCF0;stroke-width:1.0;"/><text fill="#000000" font-family="sans-serif" font-size="13" lengthAdjust="spacing" textLength="87" x="100.75" y="152.0669">Access Token</text></g><rect fill="none" height="46.5938" id="_legend" rx="7.5" ry="7.5" style="stroke:#000000;stroke-width:1.0;" width="196" x="41" y="210"/><text fill="#000000" filter="url(#b11xmr9z0xxdz30)" font-family="sans-serif" font-size="14" lengthAdjust="spacing" textLength="12" x="46" y="229.9951">   </text><text fill="#000000" font-family="sans-serif" font-size="14" lengthAdjust="spacing" textLength="166" x="62" y="229.9951">Depseudonymized Area</text><text fill="#000000" filter="url(#b11xmr9z0xxdz31)" font-family="sans-serif" font-size="14" lengthAdjust="spacing" textLength="12" x="46" y="246.292">   </text><text fill="#000000" font-family="sans-serif" font-size="14" lengthAdjust="spacing" textLength="146" x="62" y="246.292">Pseudonymized Area</text><line style="stroke:#000000;stroke-width:1.0;" x1="46" x2="232" y1="217" y2="217"/><line style="stroke:#000000;stroke-width:1.0;" x1="46" x2="232" y1="233.2969" y2="233.2969"/><line style="stroke:#000000;stroke-width:1.0;" x1="46" x2="232" y1="249.5938" y2="249.5938"/><line style="stroke:#000000;stroke-width:1.0;" x1="46" x2="46" y1="217" y2="249.5938"/><line style="stroke:#000000;stroke-width:1.0;" x1="58" x2="58" y1="217" y2="249.5938"/><line style="stroke:#000000;stroke-width:1.0;" x1="232" x2="232" y1="217" y2="249.5938"/></g></svg>